<?xml version="1.0" standalone="no"?>
<!DOCTYPE svg PUBLIC "-//W3C//DTD SVG 20010904//EN"
 "http://www.w3.org/TR/2001/REC-SVG-20010904/DTD/svg10.dtd">
<svg version="1.0" xmlns="http://www.w3.org/2000/svg"
 width="32.000000pt" height="32.000000pt" viewBox="0 0 32.000000 32.000000"
 preserveAspectRatio="xMidYMid meet">
<metadata>
Created by potrace 1.16, written by Peter Selinger 2001-2019
</metadata>
<g transform="translate(0.000000,32.000000) scale(0.100000,-0.100000)"
fill="#000000" stroke="none">
<path d="M93 232 c-6 -4 -17 -20 -22 -35 -6 -16 -15 -26 -19 -23 -21 13 -53
-42 -45 -75 3 -13 14 -32 24 -41 21 -20 85 -24 91 -6 6 17 101 11 111 -8 4 -8
17 -14 28 -14 26 0 42 44 35 97 -3 27 -1 43 6 45 20 7 0 41 -21 35 -11 -2 -23
3 -30 14 -9 16 -24 19 -79 19 -37 0 -72 -4 -79 -8z"/>
</g>
</svg>
